{
	"asset":{
		"generator":"Khronos glTF Blender I/O v5.0.21",
		"version":"2.0"
	},
	"extensionsUsed":[
		"KHR_materials_emissive_strength"
	],
	"scene":0,
	"scenes":[
		{
			"extras":{
				"bsurfaces":{
					"SURFSK_cyclic_cross":0,
					"SURFSK_keep_strokes":0
				}
			},
			"name":"Scene",
			"nodes":[
				0,
				1,
				2
			]
		}
	],
	"nodes":[
		{
			"extras":{
				"ant_landscape":{}
			},
			"mesh":0,
			"name":"Light",
			"rotation":[
				0.0033795766066759825,
				-0.9999942779541016,
				0,
				7.47441077919575e-08
			],
			"scale":[
				27.089529037475586,
				27.089529037475586,
				10.779135704040527
			],
			"translation":[
				0.28099822998046875,
				115.1673583984375,
				0.2875073254108429
			]
		},
		{
			"extras":{
				"ant_landscape":{}
			},
			"mesh":1,
			"name":"Gas Mask",
			"rotation":[
				0.7071068286895752,
				0,
				0,
				0.7071068286895752
			],
			"scale":[
				1,
				1,
				0.33326083421707153
			],
			"translation":[
				-0.009418917819857597,
				-0.30709362030029297,
				0.9605932831764221
			]
		},
		{
			"camera":0,
			"name":"Camera",
			"rotation":[
				-0.013433756306767464,
				-0.18510901927947998,
				0.05267070606350899,
				0.9812135696411133
			],
			"translation":[
				-5.161258697509766,
				0.8551830053329468,
				14.432479858398438
			]
		}
	],
	"cameras":[
		{
			"name":"Camera",
			"perspective":{
				"aspectRatio":1.7777777777777777,
				"yfov":0.5033799372418416,
				"zfar":100,
				"znear":0.10000000149011612
			},
			"type":"perspective"
		}
	],
	"materials":[
		{
			"doubleSided":true,
			"emissiveFactor":[
				1,
				1,
				1
			],
			"extensions":{
				"KHR_materials_emissive_strength":{
					"emissiveStrength":70
				}
			},
			"name":"White Light",
			"pbrMetallicRoughness":{
				"baseColorFactor":[
					0,
					0,
					0,
					1
				]
			}
		},
		{
			"doubleSided":true,
			"emissiveFactor":[
				1,
				0.7512043144194337,
				0.3137982321809498
			],
			"extensions":{
				"KHR_materials_emissive_strength":{
					"emissiveStrength":384.378045797348
				}
			},
			"name":"Yellow Light",
			"pbrMetallicRoughness":{
				"baseColorFactor":[
					0,
					0,
					0,
					1
				]
			}
		},
		{
			"doubleSided":true,
			"emissiveFactor":[
				1,
				0.39631822584351795,
				0.4129478027269093
			],
			"extensions":{
				"KHR_materials_emissive_strength":{
					"emissiveStrength":384.3764066696167
				}
			},
			"name":"Red Light",
			"pbrMetallicRoughness":{
				"baseColorFactor":[
					0,
					0,
					0,
					1
				]
			}
		},
		{
			"doubleSided":true,
			"emissiveFactor":[
				0.13673305620024667,
				1,
				0.20779666319758844
			],
			"extensions":{
				"KHR_materials_emissive_strength":{
					"emissiveStrength":90.95989465713501
				}
			},
			"name":"Green Light",
			"pbrMetallicRoughness":{
				"baseColorFactor":[
					0,
					0,
					0,
					1
				]
			}
		},
		{
			"doubleSided":true,
			"name":"Plastic"
		},
		{
			"doubleSided":true,
			"name":"Glass"
		}
	],
	"meshes":[
		{
			"name":"Plane.017",
			"primitives":[
				{
					"attributes":{
						"POSITION":0,
						"NORMAL":1
					},
					"indices":2,
					"material":0
				},
				{
					"attributes":{
						"POSITION":3,
						"NORMAL":4
					},
					"indices":2,
					"material":1
				},
				{
					"attributes":{
						"POSITION":5,
						"NORMAL":6
					},
					"indices":7,
					"material":2
				},
				{
					"attributes":{
						"POSITION":8,
						"NORMAL":9
					},
					"indices":7,
					"material":3
				}
			]
		},
		{
			"name":"Plane.002",
			"primitives":[
				{
					"attributes":{
						"POSITION":10,
						"NORMAL":11,
						"TEXCOORD_0":12,
						"TANGENT":13
					},
					"indices":14,
					"material":4
				},
				{
					"attributes":{
						"POSITION":15,
						"NORMAL":16,
						"TEXCOORD_0":17,
						"TANGENT":18
					},
					"indices":19,
					"material":5
				}
			]
		}
	],
	"accessors":[
		{
			"bufferView":0,
			"componentType":5126,
			"count":8,
			"max":[
				1.04398775100708,
				0,
				1
			],
			"min":[
				-1,
				-6.508692741394043,
				-3.51233172416687
			],
			"type":"VEC3"
		},
		{
			"bufferView":1,
			"componentType":5126,
			"count":8,
			"type":"VEC3"
		},
		{
			"bufferView":2,
			"componentType":5123,
			"count":12,
			"type":"SCALAR"
		},
		{
			"bufferView":3,
			"componentType":5126,
			"count":8,
			"max":[
				0.44358304142951965,
				-0.9141361713409424,
				12.045768737792969
			],
			"min":[
				-0.37699437141418457,
				-4.5857625007629395,
				-14.53620433807373
			],
			"type":"VEC3"
		},
		{
			"bufferView":4,
			"componentType":5126,
			"count":8,
			"type":"VEC3"
		},
		{
			"bufferView":5,
			"componentType":5126,
			"count":4,
			"max":[
				-3.26892352104187,
				-2.7279601097106934,
				1.000002384185791
			],
			"min":[
				-3.94547963142395,
				-4.610053062438965,
				-0.9999988079071045
			],
			"type":"VEC3"
		},
		{
			"bufferView":6,
			"componentType":5126,
			"count":4,
			"type":"VEC3"
		},
		{
			"bufferView":7,
			"componentType":5123,
			"count":6,
			"type":"SCALAR"
		},
		{
			"bufferView":8,
			"componentType":5126,
			"count":4,
			"max":[
				4.646359443664551,
				-2.6792032718658447,
				1.0000057220458984
			],
			"min":[
				3.9444236755371094,
				-4.551978588104248,
				-0.9999963641166687
			],
			"type":"VEC3"
		},
		{
			"bufferView":9,
			"componentType":5126,
			"count":4,
			"type":"VEC3"
		},
		{
			"bufferView":10,
			"componentType":5126,
			"count":62896,
			"max":[
				3.615720510482788,
				1.0745792388916016,
				5.943999290466309
			],
			"min":[
				-3.6162075996398926,
				-1.7133573293685913,
				-12.584480285644531
			],
			"type":"VEC3"
		},
		{
			"bufferView":11,
			"componentType":5126,
			"count":62896,
			"type":"VEC3"
		},
		{
			"bufferView":12,
			"componentType":5126,
			"count":62896,
			"type":"VEC2"
		},
		{
			"bufferView":13,
			"componentType":5126,
			"count":62896,
			"type":"VEC4"
		},
		{
			"bufferView":14,
			"componentType":5123,
			"count":340032,
			"type":"SCALAR"
		},
		{
			"bufferView":15,
			"componentType":5126,
			"count":514,
			"max":[
				2.152627944946289,
				-0.006463408470153809,
				-2.2094907760620117
			],
			"min":[
				-2.179023265838623,
				-0.9182065725326538,
				-8.873220443725586
			],
			"type":"VEC3"
		},
		{
			"bufferView":16,
			"componentType":5126,
			"count":514,
			"type":"VEC3"
		},
		{
			"bufferView":17,
			"componentType":5126,
			"count":514,
			"type":"VEC2"
		},
		{
			"bufferView":18,
			"componentType":5126,
			"count":514,
			"type":"VEC4"
		},
		{
			"bufferView":19,
			"componentType":5123,
			"count":2880,
			"type":"SCALAR"
		}
	],
	"bufferViews":[
		{
			"buffer":0,
			"byteLength":96,
			"byteOffset":0,
			"target":34962
		},
		{
			"buffer":0,
			"byteLength":96,
			"byteOffset":96,
			"target":34962
		},
		{
			"buffer":0,
			"byteLength":24,
			"byteOffset":192,
			"target":34963
		},
		{
			"buffer":0,
			"byteLength":96,
			"byteOffset":216,
			"target":34962
		},
		{
			"buffer":0,
			"byteLength":96,
			"byteOffset":312,
			"target":34962
		},
		{
			"buffer":0,
			"byteLength":48,
			"byteOffset":408,
			"target":34962
		},
		{
			"buffer":0,
			"byteLength":48,
			"byteOffset":456,
			"target":34962
		},
		{
			"buffer":0,
			"byteLength":12,
			"byteOffset":504,
			"target":34963
		},
		{
			"buffer":0,
			"byteLength":48,
			"byteOffset":516,
			"target":34962
		},
		{
			"buffer":0,
			"byteLength":48,
			"byteOffset":564,
			"target":34962
		},
		{
			"buffer":0,
			"byteLength":754752,
			"byteOffset":612,
			"target":34962
		},
		{
			"buffer":0,
			"byteLength":754752,
			"byteOffset":755364,
			"target":34962
		},
		{
			"buffer":0,
			"byteLength":503168,
			"byteOffset":1510116,
			"target":34962
		},
		{
			"buffer":0,
			"byteLength":1006336,
			"byteOffset":2013284,
			"target":34962
		},
		{
			"buffer":0,
			"byteLength":680064,
			"byteOffset":3019620,
			"target":34963
		},
		{
			"buffer":0,
			"byteLength":6168,
			"byteOffset":3699684,
			"target":34962
		},
		{
			"buffer":0,
			"byteLength":6168,
			"byteOffset":3705852,
			"target":34962
		},
		{
			"buffer":0,
			"byteLength":4112,
			"byteOffset":3712020,
			"target":34962
		},
		{
			"buffer":0,
			"byteLength":8224,
			"byteOffset":3716132,
			"target":34962
		},
		{
			"buffer":0,
			"byteLength":5760,
			"byteOffset":3724356,
			"target":34963
		}
	],
	"buffers":[
		{
			"byteLength":3730116,
			"uri":"Gas_Mask-cf5715bf43102f877b4263676cfa97d7.bin"
		}
	]
}
